<?xml version="1.0" encoding="UTF-8"?>
<svg id="Layer_3" data-name="Layer 3" xmlns="http://www.w3.org/2000/svg" viewBox="0 0 1939 2080">
  <defs>
    <style>
      .cls-1 {
        fill: #00d4f7;
      }
    </style>
  </defs>
  <path d="M983.49,992.94h-156.13s2.84,21.29,31.23,31.23h124.91v-31.23Z"/>
  <path d="M983.49,1040.36h-112.85s3.83,22.44,27.69,28.39h85.16"/>
  <path class="cls-1" d="M983.07,1106.91v-23.94h-78.92s6.91,24.04,24.04,24.04,17.1,0,54.87-.1Z"/>
  <path d="M1071.3,1039.14c19.08,0,29.38,11.03,29.38,33.09,0,24.77-9.71,39.6-33.59,39.6l-65.51-1.69,.67-31.21,66.71,1.8c5.73,0,8.31-2.53,8.31-8.86s-2.57-8.68-8.31-8.68h-42.6c-20.13,0-29.38-13.92-29.38-34.72,0-22.78,9.83-37.61,33.59-37.61l61.74,.04-1.06,31.39-62.55,.04c-5.62,0-8.31,2.17-8.31,8.32s2.69,8.5,8.31,8.5h42.6Z"/>
  <path class="cls-1" d="M1002.79,1101.63l95.16-25.06s3.73,35.73-32.32,34.55-63.03-1.47-63.03-1.47l.19-8.02"/>
</svg>