<svg width="100" height="71" viewBox="0 0 100 71" fill="none" xmlns="http://www.w3.org/2000/svg">
<rect width="40" height="44.14" transform="matrix(0.866025 -0.5 0.903834 0.632872 14.6 33.3398)" fill="white"/>
<g clip-path="url(#clip0_1691_527)">
<path d="M56.1534 43.4111L59.6163 41.4118L52.3792 36.3444L55.4992 34.543L52.2461 31.8272L48.7832 33.8265L46.9672 32.5548C46.4685 32.2057 46.4516 31.6982 46.9294 31.4224L49.5265 29.9229L45.9125 27.3924L43.3154 28.8918C40.9264 30.2711 41.0111 32.8083 43.5044 34.5541L45.3204 35.8257L43.589 36.8254L46.8421 39.5412L48.9164 38.3436L56.1534 43.4111Z" fill="#3B5999"/>
</g>
<rect width="9.99995" height="39.996" transform="matrix(-0.037809 -1.13287 0.903834 0.632872 14.98 44.6699)" fill="#B1B1B1"/>
<rect width="39.9989" height="9.99707" transform="matrix(0.866025 -0.5 0.037809 1.13287 50.76 58.6597)" fill="#B1B1B1"/>
<defs>
<clipPath id="clip0_1691_527">
<rect width="24.0034" height="23.9913" fill="white" transform="matrix(0.866025 -0.5 0.903834 0.632872 28.76 34.4097)"/>
</clipPath>
</defs>
</svg>
