<svg width="100" height="71" viewBox="0 0 100 71" fill="none" xmlns="http://www.w3.org/2000/svg">
<rect width="40" height="44.14" transform="matrix(0.866025 -0.5 0.903834 0.632872 14.6 33.3398)" fill="white"/>
<g clip-path="url(#clip0_1691_541)">
<path d="M44.8016 38.9994C47.4414 40.8511 51.524 41.3805 54.4661 40.2526C57.4083 39.1247 58.3527 36.6682 56.7019 34.4373L51.8028 37.2658L48.1888 34.7352L56.6771 29.8345L60.2911 32.3651L60.2868 32.3676C63.6079 35.7183 63.2192 39.9088 59.0309 42.3269C54.2496 45.0874 46.3288 44.4928 41.3387 40.9987C36.3487 37.5046 36.1795 32.4346 40.9608 29.6741C43.832 28.0137 48.006 27.504 52.0997 28.3138L51.3354 31.4041C48.075 30.7372 44.8122 31.4789 43.3065 33.2292C41.8008 34.9794 42.4084 37.3244 44.8016 38.9994Z" fill="#DD4B39"/>
</g>
<rect width="9.99995" height="39.996" transform="matrix(-0.037809 -1.13287 0.903834 0.632872 14.98 44.6699)" fill="#B1B1B1"/>
<rect width="39.9989" height="9.99707" transform="matrix(0.866025 -0.5 0.037809 1.13287 50.76 58.6597)" fill="#B1B1B1"/>
<defs>
<clipPath id="clip0_1691_541">
<rect width="24.0034" height="23.9913" fill="white" transform="matrix(0.866025 -0.5 0.903834 0.632872 28.76 34.4097)"/>
</clipPath>
</defs>
</svg>
