<svg width="100" height="71" viewBox="0 0 100 71" fill="none" xmlns="http://www.w3.org/2000/svg">
<rect width="40" height="44.14" transform="matrix(0.866025 -0.5 0.903834 0.632872 14.6 33.3398)" fill="white"/>
<g clip-path="url(#clip0_1691_548)">
<path fill-rule="evenodd" clip-rule="evenodd" d="M45.4783 32.8373C43.0893 34.2166 43.174 36.7538 45.6673 38.4996C48.1606 40.2454 52.1244 40.543 54.5134 39.1637C56.9024 37.7844 56.8177 35.2472 54.3244 33.5014C51.8311 31.7556 47.8673 31.458 45.4783 32.8373ZM47.3987 37.5C48.8947 38.5475 51.273 38.726 52.7064 37.8984C54.1398 37.0709 54.0889 35.5486 52.593 34.5011C51.097 33.4536 48.7187 33.275 47.2853 34.1026C45.8519 34.9302 45.9027 36.4525 47.3987 37.5Z" fill="#E4405F"/>
<path d="M48.8656 28.5731C48.3878 28.849 48.4047 29.3564 48.9034 29.7056C49.402 30.0547 50.1948 30.1143 50.6726 29.8384C51.1504 29.5625 51.1334 29.0551 50.6348 28.7059C50.1361 28.3568 49.3434 28.2973 48.8656 28.5731Z" fill="#E4405F"/>
<path fill-rule="evenodd" clip-rule="evenodd" d="M33.9973 32.5402C32.0861 33.6436 32.1539 35.6734 34.1485 37.07L46.7976 45.927C48.7922 47.3237 51.9632 47.5617 53.8744 46.4583L65.9944 39.4608C67.9056 38.3574 67.8378 36.3277 65.8432 34.931L53.1941 26.074C51.1995 24.6774 48.0285 24.4393 46.1173 25.5427L33.9973 32.5402ZM47.9243 26.808L35.8043 33.8055C34.8487 34.3572 34.8826 35.3721 35.8799 36.0704L48.529 44.9274C49.5263 45.6257 51.1118 45.7447 52.0674 45.193L64.1874 38.1956C65.143 37.6438 65.1091 36.629 64.1118 35.9306L51.4627 27.0737C50.4654 26.3753 48.8799 26.2563 47.9243 26.808Z" fill="#E4405F"/>
</g>
<rect width="9.99995" height="39.996" transform="matrix(-0.037809 -1.13287 0.903834 0.632872 14.98 44.6699)" fill="#B1B1B1"/>
<rect width="39.9989" height="9.99707" transform="matrix(0.866025 -0.5 0.037809 1.13287 50.76 58.6597)" fill="#B1B1B1"/>
<defs>
<clipPath id="clip0_1691_548">
<rect width="24.0034" height="23.9913" fill="white" transform="matrix(0.866025 -0.5 0.903834 0.632872 28.76 34.4097)"/>
</clipPath>
</defs>
</svg>
