<svg width="100" height="71" viewBox="0 0 100 71" fill="none" xmlns="http://www.w3.org/2000/svg">
<rect width="40" height="44.14" transform="matrix(0.866025 -0.5 0.903834 0.632872 14.6 33.3398)" fill="white"/>
<g clip-path="url(#clip0_1691_534)">
<path fill-rule="evenodd" clip-rule="evenodd" d="M38.4015 32.306C39.357 31.7543 40.9426 31.8733 41.9399 32.5717L44.6504 34.4696L49.8447 31.4707C50.8003 30.919 52.3858 31.038 53.3831 31.7363C54.3804 32.4347 54.4143 33.4495 53.4587 34.0012L48.2644 37.0001L50.0714 38.2654C51.5674 39.3129 53.9457 39.4915 55.3791 38.6639L57.9762 37.1644C58.9318 36.6127 60.5173 36.7318 61.5146 37.4301C62.5119 38.1284 62.5458 39.1433 61.5902 39.695L58.9931 41.1945C55.6485 43.1255 50.0992 42.7089 46.6086 40.2647L38.477 34.5709C37.4797 33.8726 37.4459 32.8577 38.4015 32.306Z" fill="#55ACEE"/>
</g>
<rect width="9.99995" height="39.996" transform="matrix(-0.037809 -1.13287 0.903834 0.632872 14.98 44.6699)" fill="#B1B1B1"/>
<rect width="39.9989" height="9.99707" transform="matrix(0.866025 -0.5 0.037809 1.13287 50.76 58.6597)" fill="#B1B1B1"/>
<defs>
<clipPath id="clip0_1691_534">
<rect width="24.0034" height="23.9913" fill="white" transform="matrix(0.866025 -0.5 0.903834 0.632872 28.76 34.4097)"/>
</clipPath>
</defs>
</svg>
